<mxfile host="65bd71144e">
    <diagram id="gqXSZGc4wuYst7ga3T93" name="Page-1">
        <mxGraphModel dx="236" dy="514" grid="1" gridSize="10" guides="1" tooltips="1" connect="1" arrows="1" fold="1" page="1" pageScale="1" pageWidth="1700" pageHeight="1100" math="0" shadow="0">
            <root>
                <mxCell id="0"/>
                <mxCell id="1" parent="0"/>
                <mxCell id="2" value="First name&lt;div&gt;&lt;font color=&quot;#000000&quot;&gt;Last Name&lt;br&gt;&lt;/font&gt;&lt;div&gt;&lt;span style=&quot;background-color: transparent;&quot;&gt;Email&lt;/span&gt;&lt;/div&gt;&lt;div&gt;&lt;span style=&quot;background-color: transparent;&quot;&gt;Phone Number&lt;/span&gt;&lt;/div&gt;&lt;div&gt;&lt;span style=&quot;background-color: transparent;&quot;&gt;Password&lt;/span&gt;&lt;/div&gt;&lt;/div&gt;&lt;div&gt;&lt;span style=&quot;background-color: transparent;&quot;&gt;Gender&lt;/span&gt;&lt;/div&gt;&lt;div&gt;&lt;span style=&quot;background-color: transparent;&quot;&gt;Address&lt;br&gt;Image&lt;/span&gt;&lt;/div&gt;" style="rounded=1;whiteSpace=wrap;html=1;fillColor=#b0e3e6;strokeColor=#0e8088;" parent="1" vertex="1">
                    <mxGeometry x="80" y="140" width="140" height="150" as="geometry"/>
                </mxCell>
                <mxCell id="3" value="&lt;font style=&quot;font-weight: bold; font-size: 14px;&quot;&gt;User&lt;/font&gt;&lt;div&gt;&lt;span style=&quot;font-size: 14px;&quot;&gt;&lt;b&gt;(&lt;/b&gt;&lt;/span&gt;&lt;font size=&quot;1&quot; style=&quot;&quot;&gt;someone that wants t&lt;/font&gt;&lt;div&gt;&lt;font size=&quot;1&quot; style=&quot;&quot;&gt;o create an event )&lt;/font&gt;&lt;div&gt;&lt;br&gt;&lt;/div&gt;&lt;/div&gt;&lt;/div&gt;" style="text;html=1;align=center;verticalAlign=middle;resizable=0;points=[];autosize=1;strokeColor=none;fillColor=none;" parent="1" vertex="1">
                    <mxGeometry x="90" y="70" width="120" height="80" as="geometry"/>
                </mxCell>
                <mxCell id="10" style="edgeStyle=none;html=1;exitX=1;exitY=0.5;exitDx=0;exitDy=0;entryX=0;entryY=0.75;entryDx=0;entryDy=0;" parent="1" source="4" target="9" edge="1">
                    <mxGeometry relative="1" as="geometry"/>
                </mxCell>
                <mxCell id="35" style="edgeStyle=none;html=1;" parent="1" source="4" target="34" edge="1">
                    <mxGeometry relative="1" as="geometry"/>
                </mxCell>
                <mxCell id="4" value="Title&lt;div&gt;&lt;font color=&quot;#000000&quot;&gt;Details&lt;/font&gt;&lt;/div&gt;&lt;div&gt;&lt;font color=&quot;#000000&quot;&gt;&lt;font color=&quot;#000000&quot;&gt;Image&lt;br&gt;&lt;/font&gt;&lt;/font&gt;&lt;div&gt;Email&lt;/div&gt;&lt;div&gt;Date&amp;nbsp;&lt;/div&gt;&lt;div&gt;Time&lt;/div&gt;&lt;div&gt;Phone Number&lt;/div&gt;&lt;div&gt;Spaeker Name&lt;/div&gt;&lt;div&gt;Speaker Image&lt;/div&gt;&lt;div&gt;Event Type(Free, paid)&lt;/div&gt;&lt;div&gt;Total Seat&lt;/div&gt;&lt;div&gt;Hall( 7 halls)&lt;/div&gt;&lt;/div&gt;&lt;div&gt;Status:default&lt;/div&gt;" style="rounded=1;whiteSpace=wrap;html=1;fillColor=#b0e3e6;strokeColor=#0e8088;" parent="1" vertex="1">
                    <mxGeometry x="65" y="370" width="170" height="199" as="geometry"/>
                </mxCell>
                <mxCell id="8" value="&lt;b&gt;&lt;font style=&quot;font-size: 13px;&quot;&gt;Events&lt;/font&gt;&lt;/b&gt;" style="text;html=1;align=center;verticalAlign=middle;resizable=0;points=[];autosize=1;strokeColor=none;fillColor=none;" parent="1" vertex="1">
                    <mxGeometry x="115" y="321" width="70" height="30" as="geometry"/>
                </mxCell>
                <mxCell id="23" style="edgeStyle=none;html=1;entryX=0;entryY=0.5;entryDx=0;entryDy=0;" parent="1" source="9" target="21" edge="1">
                    <mxGeometry relative="1" as="geometry"/>
                </mxCell>
                <mxCell id="9" value="Phone Number&lt;br&gt;Name: unique&lt;div&gt;foreignId:event_id&lt;br&gt;foreignId:EventTitle&lt;/div&gt;" style="shape=parallelogram;perimeter=parallelogramPerimeter;whiteSpace=wrap;html=1;fixedSize=1;fillColor=#ffcccc;strokeColor=#36393d;" parent="1" vertex="1">
                    <mxGeometry x="350" y="311" width="210" height="79" as="geometry"/>
                </mxCell>
                <mxCell id="13" value="&lt;b&gt;&lt;font style=&quot;font-size: 15px;&quot;&gt;Relationships&lt;/font&gt;&lt;/b&gt;" style="text;html=1;align=center;verticalAlign=middle;whiteSpace=wrap;rounded=0;" parent="1" vertex="1">
                    <mxGeometry x="200" y="630" width="130" height="30" as="geometry"/>
                </mxCell>
                <mxCell id="26" style="edgeStyle=none;html=1;fillColor=#f8cecc;strokeColor=#b85450;" parent="1" source="28" target="27" edge="1">
                    <mxGeometry relative="1" as="geometry">
                        <mxPoint x="190" y="870" as="targetPoint"/>
                    </mxGeometry>
                </mxCell>
                <mxCell id="15" value="Event" style="ellipse;whiteSpace=wrap;html=1;fillColor=#e1d5e7;strokeColor=#9673a6;" parent="1" vertex="1">
                    <mxGeometry x="210" y="710" width="90" height="50" as="geometry"/>
                </mxCell>
                <mxCell id="18" value="Guest" style="ellipse;whiteSpace=wrap;html=1;fillColor=#e1d5e7;strokeColor=#9673a6;" parent="1" vertex="1">
                    <mxGeometry x="460" y="710" width="80" height="50" as="geometry"/>
                </mxCell>
                <mxCell id="21" value="Name&lt;div&gt;Email&lt;/div&gt;&lt;div&gt;Event Title&lt;/div&gt;&lt;div&gt;foreignId( event id)&lt;/div&gt;" style="shape=trapezoid;perimeter=trapezoidPerimeter;whiteSpace=wrap;html=1;fixedSize=1;fillColor=#f5f5f5;strokeColor=#666666;fontColor=#333333;" parent="1" vertex="1">
                    <mxGeometry x="650" y="350" width="140" height="129" as="geometry"/>
                </mxCell>
                <mxCell id="22" value="&lt;font style=&quot;font-size: 14px;&quot;&gt;&lt;b style=&quot;&quot;&gt;Guest Users&lt;/b&gt;&lt;/font&gt;" style="text;html=1;align=center;verticalAlign=middle;whiteSpace=wrap;rounded=0;" parent="1" vertex="1">
                    <mxGeometry x="425" y="270" width="95" height="30" as="geometry"/>
                </mxCell>
                <mxCell id="25" value="&lt;b&gt;&lt;font style=&quot;font-size: 14px;&quot;&gt;Attendant List&lt;/font&gt;&lt;/b&gt;&lt;div&gt;&lt;font size=&quot;1&quot; style=&quot;&quot;&gt;(all the guest user&amp;nbsp;&lt;/font&gt;&lt;/div&gt;&lt;div&gt;&lt;font size=&quot;1&quot; style=&quot;&quot;&gt;resgistered for the event)&lt;/font&gt;&lt;/div&gt;" style="text;html=1;align=center;verticalAlign=middle;resizable=0;points=[];autosize=1;strokeColor=none;fillColor=none;" parent="1" vertex="1">
                    <mxGeometry x="645" y="291" width="130" height="60" as="geometry"/>
                </mxCell>
                <mxCell id="27" value="Event user" style="ellipse;whiteSpace=wrap;html=1;fillColor=#e1d5e7;strokeColor=#9673a6;" parent="1" vertex="1">
                    <mxGeometry x="20" y="690" width="95" height="50" as="geometry"/>
                </mxCell>
                <mxCell id="29" value="" style="edgeStyle=none;html=1;fillColor=#f8cecc;strokeColor=#b85450;" parent="1" source="15" target="17" edge="1">
                    <mxGeometry relative="1" as="geometry">
                        <mxPoint x="310" y="745" as="targetPoint"/>
                        <mxPoint x="190" y="745" as="sourcePoint"/>
                    </mxGeometry>
                </mxCell>
                <mxCell id="17" value="&lt;b&gt;hasMany&lt;/b&gt;" style="text;html=1;align=center;verticalAlign=middle;whiteSpace=wrap;rounded=0;" parent="1" vertex="1">
                    <mxGeometry x="360" y="820" width="50" height="30" as="geometry"/>
                </mxCell>
                <mxCell id="30" value="" style="edgeStyle=none;html=1;fillColor=#f8cecc;strokeColor=#b85450;" parent="1" source="15" target="28" edge="1">
                    <mxGeometry relative="1" as="geometry">
                        <mxPoint x="145" y="870" as="targetPoint"/>
                        <mxPoint x="145" y="770" as="sourcePoint"/>
                    </mxGeometry>
                </mxCell>
                <mxCell id="28" value="&lt;b&gt;belongTo&lt;/b&gt;" style="text;html=1;align=center;verticalAlign=middle;resizable=0;points=[];autosize=1;strokeColor=none;fillColor=none;rotation=0;" parent="1" vertex="1">
                    <mxGeometry x="102.5" y="820" width="80" height="30" as="geometry"/>
                </mxCell>
                <mxCell id="31" style="edgeStyle=none;html=1;entryX=0.006;entryY=0.782;entryDx=0;entryDy=0;entryPerimeter=0;fillColor=#f8cecc;strokeColor=#b85450;" parent="1" source="17" target="18" edge="1">
                    <mxGeometry relative="1" as="geometry"/>
                </mxCell>
                <mxCell id="32" value="&lt;b&gt;&lt;font style=&quot;font-size: 14px;&quot;&gt;Event user&lt;/font&gt;&lt;/b&gt;" style="text;html=1;align=center;verticalAlign=middle;resizable=0;points=[];autosize=1;strokeColor=none;fillColor=none;" parent="1" vertex="1">
                    <mxGeometry x="1130" y="110" width="100" height="30" as="geometry"/>
                </mxCell>
                <mxCell id="33" value="Dashboard&lt;div&gt;Event&lt;/div&gt;&lt;div&gt;Profile&lt;br&gt;&lt;br&gt;Logout&lt;/div&gt;" style="shape=cylinder3;whiteSpace=wrap;html=1;boundedLbl=1;backgroundOutline=1;size=15;fillColor=#dae8fc;strokeColor=#6c8ebf;" parent="1" vertex="1">
                    <mxGeometry x="1120" y="160" width="120" height="170" as="geometry"/>
                </mxCell>
                <mxCell id="QFIfx4BFa-TATpuk0_Pl-34" value="Notifications&lt;br&gt;Upcomg EVent&lt;br&gt;Total Seat(Charts)&lt;br&gt;Registered user(table)&lt;div&gt;&lt;br/&gt;&lt;/div&gt;" style="shape=hexagon;perimeter=hexagonPerimeter2;whiteSpace=wrap;html=1;fixedSize=1;fillColor=#f8cecc;strokeColor=#b85450;" parent="1" vertex="1">
                    <mxGeometry x="1390" y="130" width="170" height="120" as="geometry"/>
                </mxCell>
                <mxCell id="QFIfx4BFa-TATpuk0_Pl-35" style="edgeStyle=none;html=1;entryX=0.833;entryY=0.455;entryDx=0;entryDy=0;entryPerimeter=0;" parent="1" source="QFIfx4BFa-TATpuk0_Pl-34" target="33" edge="1">
                    <mxGeometry relative="1" as="geometry"/>
                </mxCell>
                <mxCell id="QFIfx4BFa-TATpuk0_Pl-37" style="edgeStyle=none;html=1;exitX=0;exitY=0.5;exitDx=0;exitDy=0;" parent="1" source="QFIfx4BFa-TATpuk0_Pl-36" edge="1">
                    <mxGeometry relative="1" as="geometry">
                        <mxPoint x="1357.9252049180332" y="309.35438524590165" as="sourcePoint"/>
                        <mxPoint x="1200.0000000000002" y="260.63847457627116" as="targetPoint"/>
                    </mxGeometry>
                </mxCell>
                <mxCell id="QFIfx4BFa-TATpuk0_Pl-36" value="&lt;div&gt;List of User EVents table&lt;/div&gt;&lt;div&gt;Create Event&lt;br&gt;&lt;br&gt;&lt;/div&gt;" style="shape=hexagon;perimeter=hexagonPerimeter2;whiteSpace=wrap;html=1;fixedSize=1;fillColor=#fff2cc;strokeColor=#d6b656;" parent="1" vertex="1">
                    <mxGeometry x="1390" y="276" width="170" height="74" as="geometry"/>
                </mxCell>
                <mxCell id="QFIfx4BFa-TATpuk0_Pl-38" value="&lt;div&gt;User Profile&lt;br&gt;Edit Profile&lt;/div&gt;" style="shape=hexagon;perimeter=hexagonPerimeter2;whiteSpace=wrap;html=1;fixedSize=1;fillColor=#d5e8d4;strokeColor=#82b366;" parent="1" vertex="1">
                    <mxGeometry x="1390" y="371" width="170" height="69" as="geometry"/>
                </mxCell>
                <mxCell id="34" value="id&lt;div&gt;Event title&lt;/div&gt;&lt;div&gt;Speakers&lt;/div&gt;&lt;div&gt;Time&lt;br&gt;Date&lt;/div&gt;&lt;div&gt;Location(hall)&lt;/div&gt;" style="shape=parallelogram;perimeter=parallelogramPerimeter;whiteSpace=wrap;html=1;fixedSize=1;fillColor=#ffcccc;strokeColor=#36393d;" parent="1" vertex="1">
                    <mxGeometry x="340" y="420" width="210" height="110" as="geometry"/>
                </mxCell>
                <mxCell id="36" value="&lt;font style=&quot;font-size: 14px;&quot;&gt;&lt;b style=&quot;&quot;&gt;Event Table&lt;/b&gt;&lt;/font&gt;" style="text;html=1;align=center;verticalAlign=middle;whiteSpace=wrap;rounded=0;" parent="1" vertex="1">
                    <mxGeometry x="397.5" y="390" width="95" height="30" as="geometry"/>
                </mxCell>
            </root>
        </mxGraphModel>
    </diagram>
</mxfile>